<?xml version="1.0" encoding="utf-8"?>
<!-- Generator: Adobe Illustrator 25.2.0, SVG Export Plug-In . SVG Version: 6.00 Build 0)  -->
<svg version="1.1" id="Warstwa_1" xmlns="http://www.w3.org/2000/svg" xmlns:xlink="http://www.w3.org/1999/xlink" x="0px" y="0px"
	 viewBox="0 0 82 82" style="enable-background:new 0 0 82 82;" xml:space="preserve">
<style type="text/css">
	.st0{fill-rule:evenodd;clip-rule:evenodd;fill:#F0583E;}
	.st1{fill:#FFFFFF;}
</style>
<path class="st0" d="M41,1C18.9,1,1,18.9,1,41s17.9,40,40,40s40-17.9,40-40S63.1,1,41,1z"/>
<path class="st1" d="M37.6,46.3L21.2,64.6l-3.6-0.2c6.1-6.9,12.1-13.8,18.2-20.7c-6-8.6-11.6-17.1-17.8-26h13.2l12.4,17.1l15.1-17.1
	l4,0c-5.8,6.6-11.5,13.1-17.3,19.7c6.3,9,12.6,17.9,19,27.1c-4.7,0-9.3,0-13.7,0C50.8,64.5,38.1,46.9,37.6,46.3z M58.9,61.7
	c-0.1-0.4-29.4-41.2-29.4-41.2c-1.8-0.1-4.3,0-6.2,0c0.1,0.4,29.5,41.2,29.5,41.2S56.9,61.7,58.9,61.7z M43.6,34.8l15.1-17.1l4,0"/>
</svg>
