<?xml version="1.0" encoding="utf-8"?>
<!-- Generator: Adobe Illustrator 25.2.0, SVG Export Plug-In . SVG Version: 6.00 Build 0)  -->
<svg version="1.1" id="Warstwa_1" xmlns="http://www.w3.org/2000/svg" xmlns:xlink="http://www.w3.org/1999/xlink" x="0px" y="0px"
	 viewBox="0 0 82 82" style="enable-background:new 0 0 82 82;" xml:space="preserve">
<style type="text/css">
	.st0{fill-rule:evenodd;clip-rule:evenodd;fill:#F0583E;}
	.st1{fill:#FFFFFF;}
</style>
<path class="st0" d="M41,1C18.9,1,1,18.9,1,41s17.9,40,40,40s40-17.9,40-40S63.1,1,41,1z"/>
<path class="st1" d="M52.4,58.9c-0.8-1.3-1.6-2.7-2.5-4c1.4-0.7,2.7-1.3,4-1.9c-0.6-0.9-1.2-0.7-1.9-0.4c-7.3,3-14.7,3-22,0
	c-0.8-0.3-1.3-0.3-1.8,0.5c1.3,0.6,2.6,1.2,4,1.9c-0.8,1.4-1.6,2.7-2.5,4c-0.1,0-8.2-3.3-11.3-5.5c-0.6-0.4-0.8-0.8-0.8-1.5
	c0-0.9-0.1-4.2-0.1-4.6c0.2-7,2.4-13.4,6-19.3c0.8-1.3,1.7-2.2,3.2-2.6c2.5-0.7,7.7-2.2,7.8-2.2c0.3,0.7,0.7,1.3,0.9,2
	c0.2,0.5,0.5,0.5,1,0.5c2.5-0.1,5-0.2,7.5-0.2c0.9,0,2.7,0,2.7,0c0.6-0.4,0.7-1.4,1.1-2.2c0.1,0,6.4,1.5,9.1,2.7
	c0.3,0.2,0.7,0.4,0.9,0.7c3.1,4.7,5.4,9.7,6.3,15.2c0.4,2.2,0.6,9.1,0.6,10c0,0.7-0.2,1.3-0.9,1.6C61.9,54.4,52.5,58.9,52.4,58.9z
	 M53.1,42.8c0-2.3-1.4-4.2-3.4-4.6c-2.2-0.5-4.3,0.9-4.9,3.3c-0.7,2.5,0.7,5.2,2.9,5.9C50.4,48.1,53.1,45.9,53.1,42.8z M33.1,47.5
	c2.3,0,4.1-1.8,4.3-4.4c0.2-2.3-1.3-4.4-3.4-4.9c-2-0.4-4,0.7-4.8,2.9C28.1,44.1,30.2,47.4,33.1,47.5z"/>
</svg>
